<svg xmlns="http://www.w3.org/2000/svg" width="41.338" height="34.635" viewBox="0 0 41.338 34.635">
  <path id="Path_2" data-name="Path 2" d="M216.573,323.852v-25.16a1.14,1.14,0,0,0-1.023-1.229H179.259a1.14,1.14,0,0,0-1.023,1.229v25.533h14.183l-.543,3.958-1.339.334a.117.117,0,0,0-.071.119v.374c0,.049.028.088.063.088h13.724c.035,0,.063-.04.063-.088v-.374a.117.117,0,0,0-.071-.119l-1.339-.334-.517-3.958h14.186v-.373Z" transform="translate(-176.736 -295.963)" fill="#505050" stroke="#505050" stroke-width="3"/>
</svg>
