{
  "accessors": [
    {
      "bufferView": 2,
      "componentType": 5126,
      "count": 1553,
      "max": [
        2.216109037399292,
        1.3178802728652954,
        1.8444443941116333
      ],
      "min": [
        -2.216109037399292,
        -1.1220939159393311,
        -1.1973502635955811
      ],
      "type": "VEC3"
    },
    {
      "bufferView": 2,
      "byteOffset": 18636,
      "componentType": 5126,
      "count": 1553,
      "max": [
        0.99995166063308716,
        0.99707961082458496,
        0.99780511856079102
      ],
      "min": [
        -0.99995166063308716,
        -0.99999254941940308,
        -1
      ],
      "type": "VEC3"
    },
    {
      "bufferView": 1,
      "componentType": 5126,
      "count": 1553,
      "max": [
        0.99129199981689453,
        0.9913184642791748
      ],
      "min": [
        0.008707977831363678,
        0.0086815357208251953
      ],
      "type": "VEC2"
    },
    {
      "bufferView": 0,
      "componentType": 5125,
      "count": 5448,
      "max": [
        1552
      ],
      "min": [
        0
      ],
      "type": "SCALAR"
    },
    {
      "bufferView": 2,
      "byteOffset": 37272,
      "componentType": 5126,
      "count": 1129,
      "max": [
        32.949974060058594,
        81.110137939453125,
        77.148796081542969
      ],
      "min": [
        -32.949974060058594,
        -84.951545715332031,
        -60.586807250976562
      ],
      "type": "VEC3"
    },
    {
      "bufferView": 2,
      "byteOffset": 50820,
      "componentType": 5126,
      "count": 1129,
      "max": [
        0.99994313716888428,
        0.99800240993499756,
        0.99987530708312988
      ],
      "min": [
        -0.99994313716888428,
        -0.99892944097518921,
        -1
      ],
      "type": "VEC3"
    },
    {
      "bufferView": 1,
      "byteOffset": 12424,
      "componentType": 5126,
      "count": 1129,
      "max": [
        0.99116063117980957,
        0.99110418558120728
      ],
      "min": [
        0.0088393930345773697,
        0.0088958740234375
      ],
      "type": "VEC2"
    },
    {
      "bufferView": 0,
      "byteOffset": 21792,
      "componentType": 5125,
      "count": 3732,
      "max": [
        1128
      ],
      "min": [
        0
      ],
      "type": "SCALAR"
    },
    {
      "bufferView": 2,
      "byteOffset": 64368,
      "componentType": 5126,
      "count": 1450,
      "max": [
        16.199884414672852,
        79.609573364257812,
        51.848907470703125
      ],
      "min": [
        -16.199884414672852,
        -63.025192260742188,
        -36.8912353515625
      ],
      "type": "VEC3"
    },
    {
      "bufferView": 2,
      "byteOffset": 81768,
      "componentType": 5126,
      "count": 1450,
      "max": [
        0.99993836879730225,
        0.99768364429473877,
        0.99999874830245972
      ],
      "min": [
        -0.99993836879730225,
        -0.99708318710327148,
        -1
      ],
      "type": "VEC3"
    },
    {
      "bufferView": 1,
      "byteOffset": 21456,
      "componentType": 5126,
      "count": 1450,
      "max": [
        0.99146801233291626,
        0.99142259359359741
      ],
      "min": [
        0.0085319764912128448,
        0.0085774660110473633
      ],
      "type": "VEC2"
    },
    {
      "bufferView": 0,
      "byteOffset": 36720,
      "componentType": 5125,
      "count": 5292,
      "max": [
        1449
      ],
      "min": [
        0
      ],
      "type": "SCALAR"
    },
    {
      "bufferView": 2,
      "byteOffset": 99168,
      "componentType": 5126,
      "count": 1664,
      "max": [
        2.9493916034698486,
        2.9155867099761963,
        2.7797615528106689
      ],
      "min": [
        -2.9493916034698486,
        -1.1572482585906982,
        -0.83902853727340698
      ],
      "type": "VEC3"
    },
    {
      "bufferView": 2,
      "byteOffset": 119136,
      "componentType": 5126,
      "count": 1664,
      "max": [
        0.99988007545471191,
        0.98294442892074585,
        0.99724596738815308
      ],
      "min": [
        -0.99988007545471191,
        -0.98739594221115112,
        -1
      ],
      "type": "VEC3"
    },
    {
      "bufferView": 1,
      "byteOffset": 33056,
      "componentType": 5126,
      "count": 1664,
      "max": [
        0.9914015531539917,
        0.99144035577774048
      ],
      "min": [
        0.0085984412580728531,
        0.0085597038269042969
      ],
      "type": "VEC2"
    },
    {
      "bufferView": 0,
      "byteOffset": 57888,
      "componentType": 5125,
      "count": 6168,
      "max": [
        1663
      ],
      "min": [
        0
      ],
      "type": "SCALAR"
    },
    {
      "bufferView": 2,
      "byteOffset": 139104,
      "componentType": 5126,
      "count": 1677,
      "max": [
        1.2511507272720337,
        4.2845816612243652,
        3.4930024147033691
      ],
      "min": [
        -1.2511507272720337,
        -5.2571568489074707,
        -3.8572001457214355
      ],
      "type": "VEC3"
    },
    {
      "bufferView": 2,
      "byteOffset": 159228,
      "componentType": 5126,
      "count": 1677,
      "max": [
        0.99992215633392334,
        0.99928909540176392,
        0.99996107816696167
      ],
      "min": [
        -0.99992215633392334,
        -0.99980026483535767,
        -1
      ],
      "type": "VEC3"
    },
    {
      "bufferView": 1,
      "byteOffset": 46368,
      "componentType": 5126,
      "count": 1677,
      "max": [
        0.99129772186279297,
        0.99125874042510986
      ],
      "min": [
        0.0087022632360458374,
        0.0087412595748901367
      ],
      "type": "VEC2"
    },
    {
      "bufferView": 0,
      "byteOffset": 82560,
      "componentType": 5125,
      "count": 6012,
      "max": [
        1676
      ],
      "min": [
        0
      ],
      "type": "SCALAR"
    },
    {
      "bufferView": 2,
      "byteOffset": 179352,
      "componentType": 5126,
      "count": 2601,
      "max": [
        51714.00390625,
        442.33642578125,
        49933.62109375
      ],
      "min": [
        -51714.0078125,
        0,
        -49933.6171875
      ],
      "type": "VEC3"
    },
    {
      "bufferView": 2,
      "byteOffset": 210564,
      "componentType": 5126,
      "count": 2601,
      "max": [
        0.082127660512924194,
        1,
        0.11066202074289322
      ],
      "min": [
        -0.084692396223545074,
        0.99329400062561035,
        -0.082532986998558044
      ],
      "type": "VEC3"
    },
    {
      "bufferView": 1,
      "byteOffset": 59784,
      "componentType": 5126,
      "count": 2601,
      "max": [
        0.99036300182342529,
        0.99002629518508911
      ],
      "min": [
        0.0096369609236717224,
        0.0099737644195556641
      ],
      "type": "VEC2"
    },
    {
      "bufferView": 0,
      "byteOffset": 106608,
      "componentType": 5125,
      "count": 15000,
      "max": [
        2600
      ],
      "min": [
        0
      ],
      "type": "SCALAR"
    },
    {
      "bufferView": 2,
      "byteOffset": 241776,
      "componentType": 5126,
      "count": 1536,
      "max": [
        8120.6201171875,
        1356.6221923828125,
        10191.6845703125
      ],
      "min": [
        -8109.8583984375,
        -842.04034423828125,
        -10437.8671875
      ],
      "type": "VEC3"
    },
    {
      "bufferView": 2,
      "byteOffset": 260208,
      "componentType": 5126,
      "count": 1536,
      "max": [
        0.99514192342758179,
        0.99988347291946411,
        0.99557876586914062
      ],
      "min": [
        -0.99514192342758179,
        -0.99891334772109985,
        -0.99514585733413696
      ],
      "type": "VEC3"
    },
    {
      "bufferView": 1,
      "byteOffset": 80592,
      "componentType": 5126,
      "count": 1536,
      "max": [
        0.99233096837997437,
        0.99230706691741943
      ],
      "min": [
        0.0076690264977514744,
        0.0076929330825805664
      ],
      "type": "VEC2"
    },
    {
      "bufferView": 0,
      "byteOffset": 166608,
      "componentType": 5125,
      "count": 3276,
      "max": [
        1535
      ],
      "min": [
        0
      ],
      "type": "SCALAR"
    }
  ],
  "asset": {
    "extras": {
      "author": "Luc.Miramont (https://sketchfab.com/Luc.Miramont)",
      "license": "CC-BY-4.0 (http://creativecommons.org/licenses/by/4.0/)",
      "source": "https://sketchfab.com/3d-models/animaux-site-392859fcfcfe4168bbc14b284485904f",
      "title": "Animaux Site"
    },
    "generator": "Sketchfab-8.61.0",
    "version": "2.0"
  },
  "bufferViews": [
    {
      "buffer": 0,
      "byteLength": 179712,
      "byteOffset": 0,
      "name": "floatBufferViews",
      "target": 34963
    },
    {
      "buffer": 0,
      "byteLength": 92880,
      "byteOffset": 179712,
      "byteStride": 8,
      "name": "floatBufferViews",
      "target": 34962
    },
    {
      "buffer": 0,
      "byteLength": 278640,
      "byteOffset": 272592,
      "byteStride": 12,
      "name": "floatBufferViews",
      "target": 34962
    }
  ],
  "buffers": [
    {
      "byteLength": 551232,
      "uri": "scene.bin"
    }
  ],
  "extensionsUsed": [
    "KHR_materials_unlit"
  ],
  "images": [
    {
      "uri": "textures/pigeon_baseColor.jpeg"
    },
    {
      "uri": "textures/mouton_baseColor.jpeg"
    },
    {
      "uri": "textures/labrador_baseColor.jpeg"
    },
    {
      "uri": "textures/hiron_baseColor.jpeg"
    },
    {
      "uri": "textures/droma_baseColor.jpeg"
    },
    {
      "uri": "textures/Plane_baseColor.jpeg"
    },
    {
      "uri": "textures/Cube_baseColor.jpeg"
    }
  ],
  "materials": [
    {
      "doubleSided": true,
      "extensions": {
        "KHR_materials_unlit": {}
      },
      "name": "pigeon",
      "pbrMetallicRoughness": {
        "baseColorFactor": [
          1,
          1,
          1,
          1
        ],
        "baseColorTexture": {
          "index": 0,
          "texCoord": 0
        },
        "metallicFactor": 0,
        "roughnessFactor": 1
      }
    },
    {
      "doubleSided": true,
      "extensions": {
        "KHR_materials_unlit": {}
      },
      "name": "mouton",
      "pbrMetallicRoughness": {
        "baseColorFactor": [
          1,
          1,
          1,
          1
        ],
        "baseColorTexture": {
          "index": 1,
          "texCoord": 0
        },
        "metallicFactor": 0,
        "roughnessFactor": 1
      }
    },
    {
      "doubleSided": true,
      "extensions": {
        "KHR_materials_unlit": {}
      },
      "name": "labrador",
      "pbrMetallicRoughness": {
        "baseColorFactor": [
          1,
          1,
          1,
          1
        ],
        "baseColorTexture": {
          "index": 2,
          "texCoord": 0
        },
        "metallicFactor": 0,
        "roughnessFactor": 1
      }
    },
    {
      "doubleSided": true,
      "extensions": {
        "KHR_materials_unlit": {}
      },
      "name": "hiron",
      "pbrMetallicRoughness": {
        "baseColorFactor": [
          1,
          1,
          1,
          1
        ],
        "baseColorTexture": {
          "index": 3,
          "texCoord": 0
        },
        "metallicFactor": 0,
        "roughnessFactor": 1
      }
    },
    {
      "doubleSided": true,
      "extensions": {
        "KHR_materials_unlit": {}
      },
      "name": "droma",
      "pbrMetallicRoughness": {
        "baseColorFactor": [
          1,
          1,
          1,
          1
        ],
        "baseColorTexture": {
          "index": 4,
          "texCoord": 0
        },
        "metallicFactor": 0,
        "roughnessFactor": 1
      }
    },
    {
      "doubleSided": true,
      "extensions": {
        "KHR_materials_unlit": {}
      },
      "name": "Plane",
      "pbrMetallicRoughness": {
        "baseColorFactor": [
          1,
          1,
          1,
          1
        ],
        "baseColorTexture": {
          "index": 5,
          "texCoord": 0
        },
        "metallicFactor": 0,
        "roughnessFactor": 1
      }
    },
    {
      "doubleSided": true,
      "extensions": {
        "KHR_materials_unlit": {}
      },
      "name": "Cube",
      "pbrMetallicRoughness": {
        "baseColorFactor": [
          1,
          1,
          1,
          1
        ],
        "baseColorTexture": {
          "index": 6,
          "texCoord": 0
        },
        "metallicFactor": 0,
        "roughnessFactor": 1
      }
    }
  ],
  "meshes": [
    {
      "name": "pigeon_pigeon_0",
      "primitives": [
        {
          "attributes": {
            "NORMAL": 1,
            "POSITION": 0,
            "TEXCOORD_0": 2
          },
          "indices": 3,
          "material": 0,
          "mode": 4
        }
      ]
    },
    {
      "name": "mouton_mouton_0",
      "primitives": [
        {
          "attributes": {
            "NORMAL": 5,
            "POSITION": 4,
            "TEXCOORD_0": 6
          },
          "indices": 7,
          "material": 1,
          "mode": 4
        }
      ]
    },
    {
      "name": "labrador_labrador_0",
      "primitives": [
        {
          "attributes": {
            "NORMAL": 9,
            "POSITION": 8,
            "TEXCOORD_0": 10
          },
          "indices": 11,
          "material": 2,
          "mode": 4
        }
      ]
    },
    {
      "name": "hiron_hiron_0",
      "primitives": [
        {
          "attributes": {
            "NORMAL": 13,
            "POSITION": 12,
            "TEXCOORD_0": 14
          },
          "indices": 15,
          "material": 3,
          "mode": 4
        }
      ]
    },
    {
      "name": "droma_droma_0",
      "primitives": [
        {
          "attributes": {
            "NORMAL": 17,
            "POSITION": 16,
            "TEXCOORD_0": 18
          },
          "indices": 19,
          "material": 4,
          "mode": 4
        }
      ]
    },
    {
      "name": "Plane_Plane_0",
      "primitives": [
        {
          "attributes": {
            "NORMAL": 21,
            "POSITION": 20,
            "TEXCOORD_0": 22
          },
          "indices": 23,
          "material": 5,
          "mode": 4
        }
      ]
    },
    {
      "name": "Cube_Cube_0",
      "primitives": [
        {
          "attributes": {
            "NORMAL": 25,
            "POSITION": 24,
            "TEXCOORD_0": 26
          },
          "indices": 27,
          "material": 6,
          "mode": 4
        }
      ]
    }
  ],
  "nodes": [
    {
      "children": [
        1
      ],
      "name": "RootNode (gltf orientation matrix)",
      "rotation": [
        -0.70710678118654746,
        -0,
        -0,
        0.70710678118654757
      ]
    },
    {
      "children": [
        2
      ],
      "name": "RootNode (model correction matrix)"
    },
    {
      "children": [
        3
      ],
      "matrix": [
        1,
        0,
        0,
        0,
        0,
        0,
        1,
        0,
        0,
        -1,
        0,
        0,
        0,
        0,
        0,
        1
      ],
      "name": "5065e6acc95843f1b03bf0c71f14f1b4.fbx"
    },
    {
      "children": [
        4,
        6,
        8,
        10,
        12,
        14,
        16
      ],
      "name": "RootNode"
    },
    {
      "children": [
        5
      ],
      "matrix": [
        557.8076171875,
        0,
        0,
        0,
        0,
        1.2385817198257154e-13,
        -557.8076171875,
        0,
        0,
        557.8076171875,
        1.2385817198257154e-13,
        0,
        14193.501953125,
        1092.9569091796875,
        3586.8212890625,
        1
      ],
      "name": "pigeon"
    },
    {
      "mesh": 0,
      "name": "pigeon_pigeon_0"
    },
    {
      "children": [
        7
      ],
      "matrix": [
        32.014037769882783,
        2.8386189527277372e-15,
        -11.716464132177773,
        0,
        -11.716464132177773,
        1.8924126351518248e-14,
        -32.014037769882776,
        0,
        2.8386189527277372e-15,
        34.090675354003899,
        1.8924126351518248e-14,
        0,
        7242.08740234375,
        2073.750244140625,
        2719.807373046875,
        1
      ],
      "name": "mouton"
    },
    {
      "mesh": 1,
      "name": "mouton_mouton_0"
    },
    {
      "children": [
        9
      ],
      "matrix": [
        52.864197827688479,
        7.3950222047948532e-16,
        6.6973426192043011,
        0,
        6.6973426192043011,
        -1.1832035527671765e-14,
        -52.864197827688493,
        0,
        7.3950222047948532e-16,
        53.286750793457045,
        -1.1832035527671765e-14,
        0,
        22158.138671875,
        1745.880615234375,
        3812.461669921875,
        1
      ],
      "name": "labrador"
    },
    {
      "mesh": 2,
      "name": "labrador_labrador_0"
    },
    {
      "children": [
        11
      ],
      "matrix": [
        -253.75293479596962,
        0,
        -429.50038513071337,
        0,
        -429.50038513071337,
        0,
        253.75293479596957,
        0,
        0,
        498.85983276367188,
        0,
        0,
        18485.03515625,
        222.61326599121094,
        8167.2373046875,
        1
      ],
      "name": "hiron"
    },
    {
      "mesh": 3,
      "name": "hiron_hiron_0"
    },
    {
      "children": [
        13
      ],
      "matrix": [
        1090.3197021484375,
        0,
        0,
        0,
        0,
        2.4209960750552761e-13,
        -1090.3197021484375,
        0,
        0,
        1090.3197021484375,
        2.4209960750552761e-13,
        0,
        18808.3828125,
        4089.0419921875,
        2.2273579736251797e-13,
        1
      ],
      "name": "droma"
    },
    {
      "mesh": 4,
      "name": "droma_droma_0"
    },
    {
      "children": [
        15
      ],
      "matrix": [
        -0.95959837389008706,
        -1.1751690770515001e-16,
        0.2813733477561457,
        0,
        -1.569229768842292e-16,
        1,
        -1.1751690770515001e-16,
        0,
        -0.2813733477561457,
        -1.569229768842292e-16,
        -0.95959837389008706,
        0,
        -10626.7939453125,
        -265.22100830078125,
        -2545.461181640625,
        1
      ],
      "name": "Plane"
    },
    {
      "mesh": 5,
      "name": "Plane_Plane_0"
    },
    {
      "children": [
        17
      ],
      "matrix": [
        -0.95959837389008706,
        -1.1751690770515001e-16,
        0.28137334775614536,
        0,
        -1.5692297688422916e-16,
        1,
        -1.1751690770515001e-16,
        0,
        -0.28137334775614536,
        -1.5692297688422916e-16,
        -0.95959837389008706,
        0,
        12721.626953125,
        -399.6505126953125,
        4625.21142578125,
        1
      ],
      "name": "Cube"
    },
    {
      "mesh": 6,
      "name": "Cube_Cube_0"
    }
  ],
  "samplers": [
    {
      "magFilter": 9729,
      "minFilter": 9987,
      "wrapS": 10497,
      "wrapT": 10497
    }
  ],
  "scene": 0,
  "scenes": [
    {
      "name": "OSG_Scene",
      "nodes": [
        0
      ]
    }
  ],
  "textures": [
    {
      "sampler": 0,
      "source": 0
    },
    {
      "sampler": 0,
      "source": 1
    },
    {
      "sampler": 0,
      "source": 2
    },
    {
      "sampler": 0,
      "source": 3
    },
    {
      "sampler": 0,
      "source": 4
    },
    {
      "sampler": 0,
      "source": 5
    },
    {
      "sampler": 0,
      "source": 6
    }
  ]
}

