{
  "accessors": [
    {
      "bufferView": 2,
      "componentType": 5126,
      "count": 1536,
      "max": [
        8120.6201171875,
        1356.6221923828125,
        10191.6845703125
      ],
      "min": [
        -8109.8583984375,
        -842.04034423828125,
        -10437.8671875
      ],
      "type": "VEC3"
    },
    {
      "bufferView": 2,
      "byteOffset": 18432,
      "componentType": 5126,
      "count": 1536,
      "max": [
        0.99514192342758179,
        0.99988347291946411,
        0.99557876586914062
      ],
      "min": [
        -0.99514192342758179,
        -0.99891334772109985,
        -0.99514585733413696
      ],
      "type": "VEC3"
    },
    {
      "bufferView": 1,
      "componentType": 5126,
      "count": 1536,
      "max": [
        0.99233096837997437,
        0.99230706691741943
      ],
      "min": [
        0.0076690264977514744,
        0.0076929330825805664
      ],
      "type": "VEC2"
    },
    {
      "bufferView": 0,
      "componentType": 5125,
      "count": 3276,
      "max": [
        1535
      ],
      "min": [
        0
      ],
      "type": "SCALAR"
    },
    {
      "bufferView": 2,
      "byteOffset": 36864,
      "componentType": 5126,
      "count": 2601,
      "max": [
        51714.00390625,
        442.33642578125,
        49933.62109375
      ],
      "min": [
        -51714.0078125,
        0,
        -49933.6171875
      ],
      "type": "VEC3"
    },
    {
      "bufferView": 2,
      "byteOffset": 68076,
      "componentType": 5126,
      "count": 2601,
      "max": [
        0.082127660512924194,
        1,
        0.11066202074289322
      ],
      "min": [
        -0.084692396223545074,
        0.99329400062561035,
        -0.082532986998558044
      ],
      "type": "VEC3"
    },
    {
      "bufferView": 1,
      "byteOffset": 12288,
      "componentType": 5126,
      "count": 2601,
      "max": [
        0.99036300182342529,
        0.99002629518508911
      ],
      "min": [
        0.0096369609236717224,
        0.0099737644195556641
      ],
      "type": "VEC2"
    },
    {
      "bufferView": 0,
      "byteOffset": 13104,
      "componentType": 5125,
      "count": 15000,
      "max": [
        2600
      ],
      "min": [
        0
      ],
      "type": "SCALAR"
    },
    {
      "bufferView": 2,
      "byteOffset": 99288,
      "componentType": 5126,
      "count": 1535,
      "max": [
        969.47735595703125,
        5015.50048828125,
        -4139.38818359375
      ],
      "min": [
        -848.6097412109375,
        -20.813316345214844,
        -11559.9990234375
      ],
      "type": "VEC3"
    },
    {
      "bufferView": 2,
      "byteOffset": 117708,
      "componentType": 5126,
      "count": 1535,
      "max": [
        0.99991703033447266,
        0.9999547004699707,
        0.99981033802032471
      ],
      "min": [
        -0.9992937445640564,
        -1,
        -0.99853068590164185
      ],
      "type": "VEC3"
    },
    {
      "bufferView": 1,
      "byteOffset": 33096,
      "componentType": 5126,
      "count": 1535,
      "max": [
        0.99124228954315186,
        0.99128168821334839
      ],
      "min": [
        0.0087577076628804207,
        0.0087183713912963867
      ],
      "type": "VEC2"
    },
    {
      "bufferView": 0,
      "byteOffset": 73104,
      "componentType": 5125,
      "count": 5292,
      "max": [
        1534
      ],
      "min": [
        0
      ],
      "type": "SCALAR"
    },
    {
      "bufferView": 2,
      "byteOffset": 136128,
      "componentType": 5126,
      "count": 2291,
      "max": [
        268.14971923828125,
        537.35614013671875,
        7.3041982650756836
      ],
      "min": [
        -172.50247192382812,
        -208.36701965332031,
        -1504.7825927734375
      ],
      "type": "VEC3"
    },
    {
      "bufferView": 2,
      "byteOffset": 163620,
      "componentType": 5126,
      "count": 2291,
      "max": [
        0.9998323917388916,
        0.99264252185821533,
        0.99804610013961792
      ],
      "min": [
        -0.99955064058303833,
        -0.99705737829208374,
        -0.99507397413253784
      ],
      "type": "VEC3"
    },
    {
      "bufferView": 1,
      "byteOffset": 45376,
      "componentType": 5126,
      "count": 2291,
      "max": [
        0.99165380001068115,
        0.99165278673171997
      ],
      "min": [
        0.0083462288603186607,
        0.0083472728729248047
      ],
      "type": "VEC2"
    },
    {
      "bufferView": 0,
      "byteOffset": 94272,
      "componentType": 5125,
      "count": 6720,
      "max": [
        2290
      ],
      "min": [
        0
      ],
      "type": "SCALAR"
    },
    {
      "bufferView": 2,
      "byteOffset": 191112,
      "componentType": 5126,
      "count": 1847,
      "max": [
        2506.15625,
        14849.490234375,
        17856.40625
      ],
      "min": [
        -2565.24560546875,
        -2.8015599250793457,
        -3159.981689453125
      ],
      "type": "VEC3"
    },
    {
      "bufferView": 2,
      "byteOffset": 213276,
      "componentType": 5126,
      "count": 1847,
      "max": [
        0.99994248151779175,
        0.99921953678131104,
        0.99886715412139893
      ],
      "min": [
        -0.9999622106552124,
        -1,
        -0.99990087747573853
      ],
      "type": "VEC3"
    },
    {
      "bufferView": 1,
      "byteOffset": 63704,
      "componentType": 5126,
      "count": 1847,
      "max": [
        0.99147999286651611,
        0.99115771055221558
      ],
      "min": [
        0.0085199978202581406,
        0.0088423490524291992
      ],
      "type": "VEC2"
    },
    {
      "bufferView": 0,
      "byteOffset": 121152,
      "componentType": 5125,
      "count": 6468,
      "max": [
        1846
      ],
      "min": [
        0
      ],
      "type": "SCALAR"
    },
    {
      "bufferView": 2,
      "byteOffset": 235440,
      "componentType": 5126,
      "count": 1161,
      "max": [
        7047.9189453125,
        6520.32470703125,
        -6981.59326171875
      ],
      "min": [
        3889.206787109375,
        0.00047014348092488945,
        -14648.67578125
      ],
      "type": "VEC3"
    },
    {
      "bufferView": 2,
      "byteOffset": 249372,
      "componentType": 5126,
      "count": 1161,
      "max": [
        0.99884897470474243,
        0.99975746870040894,
        0.99957126379013062
      ],
      "min": [
        -0.99722379446029663,
        -1,
        -0.98542124032974243
      ],
      "type": "VEC3"
    },
    {
      "bufferView": 1,
      "byteOffset": 78480,
      "componentType": 5126,
      "count": 1161,
      "max": [
        0.99147897958755493,
        0.99119305610656738
      ],
      "min": [
        0.0085210185497999191,
        0.0088069438934326172
      ],
      "type": "VEC2"
    },
    {
      "bufferView": 0,
      "byteOffset": 147024,
      "componentType": 5125,
      "count": 3732,
      "max": [
        1160
      ],
      "min": [
        0
      ],
      "type": "SCALAR"
    },
    {
      "bufferView": 2,
      "byteOffset": 263304,
      "componentType": 5126,
      "count": 4341,
      "max": [
        2187.91650390625,
        12340.1806640625,
        2332.0400390625
      ],
      "min": [
        -1581.920654296875,
        -8.3429784774780273,
        -2554.61865234375
      ],
      "type": "VEC3"
    },
    {
      "bufferView": 2,
      "byteOffset": 315396,
      "componentType": 5126,
      "count": 4341,
      "max": [
        0.99941247701644897,
        0.99958562850952148,
        0.9993782639503479
      ],
      "min": [
        -0.99980860948562622,
        -0.99999630451202393,
        -0.99974572658538818
      ],
      "type": "VEC3"
    },
    {
      "bufferView": 1,
      "byteOffset": 87768,
      "componentType": 5126,
      "count": 4341,
      "max": [
        0.99204105138778687,
        0.99204415082931519
      ],
      "min": [
        0.0079589253291487694,
        0.0079559087753295898
      ],
      "type": "VEC2"
    },
    {
      "bufferView": 0,
      "byteOffset": 161952,
      "componentType": 5125,
      "count": 14484,
      "max": [
        4340
      ],
      "min": [
        0
      ],
      "type": "SCALAR"
    }
  ],
  "asset": {
    "extras": {
      "author": "Luc.Miramont (https://sketchfab.com/Luc.Miramont)",
      "license": "CC-BY-4.0 (http://creativecommons.org/licenses/by/4.0/)",
      "source": "https://sketchfab.com/3d-models/animaux-03bd3f1e84d84464867a141706d83b13",
      "title": "animaux"
    },
    "generator": "Sketchfab-8.72.3",
    "version": "2.0"
  },
  "bufferViews": [
    {
      "buffer": 0,
      "byteLength": 219888,
      "byteOffset": 0,
      "name": "floatBufferViews",
      "target": 34963
    },
    {
      "buffer": 0,
      "byteLength": 122496,
      "byteOffset": 219888,
      "byteStride": 8,
      "name": "floatBufferViews",
      "target": 34962
    },
    {
      "buffer": 0,
      "byteLength": 367488,
      "byteOffset": 342384,
      "byteStride": 12,
      "name": "floatBufferViews",
      "target": 34962
    }
  ],
  "buffers": [
    {
      "byteLength": 709872,
      "uri": "scene.bin"
    }
  ],
  "extensionsUsed": [
    "KHR_materials_unlit"
  ],
  "images": [
    {
      "uri": "textures/Cube.1_baseColor.jpeg"
    },
    {
      "uri": "textures/Plane.1_baseColor.jpeg"
    },
    {
      "uri": "textures/labrador.1_baseColor.jpeg"
    },
    {
      "uri": "textures/hirondelle_baseColor.jpeg"
    },
    {
      "uri": "textures/dromadaire.1_baseColor.jpeg"
    },
    {
      "uri": "textures/mouton.1_baseColor.jpeg"
    },
    {
      "uri": "textures/cheveux.1_baseColor.jpeg"
    }
  ],
  "materials": [
    {
      "doubleSided": true,
      "extensions": {
        "KHR_materials_unlit": {}
      },
      "name": "Cube.1",
      "pbrMetallicRoughness": {
        "baseColorFactor": [
          1,
          1,
          1,
          1
        ],
        "baseColorTexture": {
          "index": 0,
          "texCoord": 0
        },
        "metallicFactor": 0,
        "roughnessFactor": 1
      }
    },
    {
      "doubleSided": true,
      "extensions": {
        "KHR_materials_unlit": {}
      },
      "name": "Plane.1",
      "pbrMetallicRoughness": {
        "baseColorFactor": [
          1,
          1,
          1,
          1
        ],
        "baseColorTexture": {
          "index": 1,
          "texCoord": 0
        },
        "metallicFactor": 0,
        "roughnessFactor": 1
      }
    },
    {
      "doubleSided": true,
      "extensions": {
        "KHR_materials_unlit": {}
      },
      "name": "labrador.1",
      "pbrMetallicRoughness": {
        "baseColorFactor": [
          1,
          1,
          1,
          1
        ],
        "baseColorTexture": {
          "index": 2,
          "texCoord": 0
        },
        "metallicFactor": 0,
        "roughnessFactor": 1
      }
    },
    {
      "doubleSided": true,
      "extensions": {
        "KHR_materials_unlit": {}
      },
      "name": "hirondelle",
      "pbrMetallicRoughness": {
        "baseColorFactor": [
          1,
          1,
          1,
          1
        ],
        "baseColorTexture": {
          "index": 3,
          "texCoord": 0
        },
        "metallicFactor": 0,
        "roughnessFactor": 1
      }
    },
    {
      "doubleSided": true,
      "extensions": {
        "KHR_materials_unlit": {}
      },
      "name": "dromadaire.1",
      "pbrMetallicRoughness": {
        "baseColorFactor": [
          1,
          1,
          1,
          1
        ],
        "baseColorTexture": {
          "index": 4,
          "texCoord": 0
        },
        "metallicFactor": 0,
        "roughnessFactor": 1
      }
    },
    {
      "doubleSided": true,
      "extensions": {
        "KHR_materials_unlit": {}
      },
      "name": "mouton.1",
      "pbrMetallicRoughness": {
        "baseColorFactor": [
          1,
          1,
          1,
          1
        ],
        "baseColorTexture": {
          "index": 5,
          "texCoord": 0
        },
        "metallicFactor": 0,
        "roughnessFactor": 1
      }
    },
    {
      "doubleSided": true,
      "extensions": {
        "KHR_materials_unlit": {}
      },
      "name": "cheveux.1",
      "pbrMetallicRoughness": {
        "baseColorFactor": [
          1,
          1,
          1,
          1
        ],
        "baseColorTexture": {
          "index": 6,
          "texCoord": 0
        },
        "metallicFactor": 0,
        "roughnessFactor": 1
      }
    }
  ],
  "meshes": [
    {
      "name": "Cube_1_Cube.1_0",
      "primitives": [
        {
          "attributes": {
            "NORMAL": 1,
            "POSITION": 0,
            "TEXCOORD_0": 2
          },
          "indices": 3,
          "material": 0,
          "mode": 4
        }
      ]
    },
    {
      "name": "Plane_1_Plane.1_0",
      "primitives": [
        {
          "attributes": {
            "NORMAL": 5,
            "POSITION": 4,
            "TEXCOORD_0": 6
          },
          "indices": 7,
          "material": 1,
          "mode": 4
        }
      ]
    },
    {
      "name": "labrador_1_labrador.1_0",
      "primitives": [
        {
          "attributes": {
            "NORMAL": 9,
            "POSITION": 8,
            "TEXCOORD_0": 10
          },
          "indices": 11,
          "material": 2,
          "mode": 4
        }
      ]
    },
    {
      "name": "hirondelle_1_hirondelle_0",
      "primitives": [
        {
          "attributes": {
            "NORMAL": 13,
            "POSITION": 12,
            "TEXCOORD_0": 14
          },
          "indices": 15,
          "material": 3,
          "mode": 4
        }
      ]
    },
    {
      "name": "dromadaire_1_dromadaire.1_0",
      "primitives": [
        {
          "attributes": {
            "NORMAL": 17,
            "POSITION": 16,
            "TEXCOORD_0": 18
          },
          "indices": 19,
          "material": 4,
          "mode": 4
        }
      ]
    },
    {
      "name": "mouton_1_mouton.1_0",
      "primitives": [
        {
          "attributes": {
            "NORMAL": 21,
            "POSITION": 20,
            "TEXCOORD_0": 22
          },
          "indices": 23,
          "material": 5,
          "mode": 4
        }
      ]
    },
    {
      "name": "cheveux_1_cheveux.1_0",
      "primitives": [
        {
          "attributes": {
            "NORMAL": 25,
            "POSITION": 24,
            "TEXCOORD_0": 26
          },
          "indices": 27,
          "material": 6,
          "mode": 4
        }
      ]
    }
  ],
  "nodes": [
    {
      "children": [
        1
      ],
      "name": "RootNode (gltf orientation matrix)",
      "rotation": [
        -0.70710678118654746,
        -0,
        -0,
        0.70710678118654757
      ]
    },
    {
      "children": [
        2
      ],
      "name": "RootNode (model correction matrix)"
    },
    {
      "children": [
        3
      ],
      "matrix": [
        1,
        0,
        0,
        0,
        0,
        0,
        1,
        0,
        0,
        -1,
        0,
        0,
        0,
        0,
        0,
        1
      ],
      "name": "3f258ad42aed4f949057d95fa7da321a.fbx"
    },
    {
      "children": [
        4,
        6,
        8,
        10,
        12,
        14,
        16
      ],
      "name": "RootNode"
    },
    {
      "children": [
        5
      ],
      "matrix": [
        -0.95959837389008706,
        -1.1751690770515001e-16,
        0.28137334775614536,
        0,
        -1.5692297688422916e-16,
        1,
        -1.1751690770515001e-16,
        0,
        -0.28137334775614536,
        -1.5692297688422916e-16,
        -0.95959837389008706,
        0,
        12721.626953125,
        -399.6505126953125,
        4625.21142578125,
        1
      ],
      "name": "Cube_1"
    },
    {
      "mesh": 0,
      "name": "Cube_1_Cube.1_0"
    },
    {
      "children": [
        7
      ],
      "matrix": [
        -0.95959837389008706,
        -1.1751690770515001e-16,
        0.2813733477561457,
        0,
        -1.569229768842292e-16,
        1,
        -1.1751690770515001e-16,
        0,
        -0.2813733477561457,
        -1.569229768842292e-16,
        -0.95959837389008706,
        0,
        -10626.7939453125,
        -265.22100830078125,
        -2545.461181640625,
        1
      ],
      "name": "Plane_1"
    },
    {
      "mesh": 1,
      "name": "Plane_1_Plane.1_0"
    },
    {
      "children": [
        9
      ],
      "matrix": [
        1,
        0,
        0,
        0,
        0,
        1,
        0,
        0,
        0,
        0,
        1,
        0,
        17030.82421875,
        -46.788684844970703,
        12229.0439453125,
        1
      ],
      "name": "labrador_1"
    },
    {
      "mesh": 2,
      "name": "labrador_1_labrador.1_0"
    },
    {
      "children": [
        11
      ],
      "matrix": [
        1,
        0,
        0,
        0,
        0,
        1,
        0,
        0,
        0,
        0,
        1,
        0,
        18296.1796875,
        10201.603515625,
        12479.0048828125,
        1
      ],
      "name": "hirondelle_1"
    },
    {
      "mesh": 3,
      "name": "hirondelle_1_hirondelle_0"
    },
    {
      "children": [
        13
      ],
      "matrix": [
        1,
        0,
        0,
        0,
        0,
        1,
        0,
        0,
        0,
        0,
        1,
        0,
        17030.82421875,
        -46.788684844970703,
        -21145.849609375,
        1
      ],
      "name": "dromadaire_1"
    },
    {
      "mesh": 4,
      "name": "dromadaire_1_dromadaire.1_0"
    },
    {
      "children": [
        15
      ],
      "matrix": [
        1,
        0,
        0,
        0,
        0,
        1,
        0,
        0,
        0,
        0,
        1,
        0,
        12193.2548828125,
        -46.788684844970703,
        6549.30224609375,
        1
      ],
      "name": "mouton_1"
    },
    {
      "mesh": 5,
      "name": "mouton_1_mouton.1_0"
    },
    {
      "children": [
        17
      ],
      "matrix": [
        1,
        0,
        0,
        0,
        0,
        1,
        0,
        0,
        0,
        0,
        1,
        0,
        17030.82421875,
        -46.788684844970703,
        12229.0439453125,
        1
      ],
      "name": "cheveux_1"
    },
    {
      "mesh": 6,
      "name": "cheveux_1_cheveux.1_0"
    }
  ],
  "samplers": [
    {
      "magFilter": 9729,
      "minFilter": 9987,
      "wrapS": 10497,
      "wrapT": 10497
    }
  ],
  "scene": 0,
  "scenes": [
    {
      "name": "OSG_Scene",
      "nodes": [
        0
      ]
    }
  ],
  "textures": [
    {
      "sampler": 0,
      "source": 0
    },
    {
      "sampler": 0,
      "source": 1
    },
    {
      "sampler": 0,
      "source": 2
    },
    {
      "sampler": 0,
      "source": 3
    },
    {
      "sampler": 0,
      "source": 4
    },
    {
      "sampler": 0,
      "source": 5
    },
    {
      "sampler": 0,
      "source": 6
    }
  ]
}

